<?xml version="1.0" encoding="UTF-8" standalone="no"?>
<svg xmlns:dc="http://purl.org/dc/elements/1.1/" xmlns:cc="http://creativecommons.org/ns#" xmlns:rdf="http://www.w3.org/1999/02/22-rdf-syntax-ns#" xmlns:svg="http://www.w3.org/2000/svg" xmlns="http://www.w3.org/2000/svg" xml:space="preserve" enable-background="new 0 0 3528 1905" viewBox="0 0 3188.9448 2267.9705" height="2267.9705" width="3188.9448" y="0px" x="0px" id="Layer_1" version="1.1"><metadata id="metadata10"><rdf:RDF><cc:Work rdf:about=""><dc:format>image/svg+xml</dc:format><dc:type rdf:resource="http://purl.org/dc/dcmitype/StillImage"/><dc:title/></cc:Work></rdf:RDF></metadata><defs id="defs8"/><g transform="translate(-841.049,731.704)" id="Centerline"><path id="path4" d="m 2371.53,1516.992 c -55.662,-20.845 -111.418,-40.517 -167.171,-60.198 3.462,-4.921 6.938,-9.569 10.429,-13.981 44.473,-56.241 92.377,-73.35 166.578,-92.353 1.911,-9.205 3.819,-18.418 5.631,-26.459 9.486,-1.583 18.882,-2.002 28.277,-2.421 6.017,-148.115 -175.474,-321.783 -252.194,-444.941 -41.2,-11.493 -82.493,-21.826 -123.787,-32.157 -9.028,25.021 -18.052,50.041 -27.073,75.063 -8.232,0.51 -17.628,0.928 -27.023,1.347 -1.908,9.206 -3.818,18.409 -6.975,28.688 -9.396,0.418 -18.791,0.837 -28.187,1.256 -19.861,28.831 -39.816,58.818 -60.936,88.726 -9.396,0.418 -18.783,0.827 -28.176,1.245 -1.91,9.213 -3.818,18.419 -6.985,28.695 -31.622,15.019 -63.247,30.035 -96.035,44.96 -1.911,9.206 -3.819,18.419 -6.982,28.695 -93.861,13.468 -175.663,97.778 -239.588,167.728 l -11.19,12.264 c -94.127,6.498 -189.418,12.904 -284.799,20.473 -0.556,-22.274 -2.366,-43.485 -4.178,-64.693 -60.18,20.92 -84.82,7.251 -145.323,-11.639 8.46,-18.047 16.927,-36.091 24.229,-54.227 38.997,-6.808 71.281,-11.67 98.578,-16.22 120.562,-20.098 143.482,-33.829 214.337,-179.854 10.651,-1.482 20.046,-1.901 29.441,-2.319 49.158,-73.291 49.158,-73.291 146.892,-285.43 -27.487,7.157 -56.128,14.219 -84.87,22.449 -1.908,9.206 -3.819,18.417 -6.982,28.695 -85.66,-11.549 -199.74,-4.306 -243.042,83.491 -48.138,-3.233 -70.405,-4.71 -86.083,-8.558 -13.512,-3.302 -22.146,-8.376 -38.174,-17.779 7.255,-32.179 13.258,-63.294 19.261,-94.4 -103.855,84.114 -180.819,66.244 -288.381,-7.896 3.226,-83.986 45.735,-118.029 80.16,-197.177 -20.671,-223.969 111.189,-365.513 118.615,-589.572 36.082,16.934 72.072,35.022 106.905,53.022 80.517,-114.064 197.992,-178.364 322.82,-246.762 36.188,-42.729 89.265,-135.593 146.793,-138.006 1.901,-9.21 3.812,-18.417 5.72,-27.622 9.486,-1.581 18.881,-1.999 28.277,-2.417 1.91,-9.206 3.811,-18.419 5.722,-27.625 10.651,-1.482 20.046,-1.901 29.441,-2.319 1.908,-9.206 3.811,-18.418 5.628,-26.459 84.084,-27.196 150.969,-131.829 211.013,-194.877 48.414,-5.485 48.414,-5.485 177.756,-57.132 120.349,16.661 239.542,33.229 358.644,50.962 1.573,9.486 1.992,18.881 2.411,28.277 56.127,15.031 78.448,28.521 120.812,69.356 433.234,83.857 433.234,83.857 510.235,115.769 1.583,9.489 2.002,18.881 2.421,28.27 15.016,2.373 28.877,4.655 42.64,8.103 1.581,9.486 1.999,18.881 2.418,28.276 15.017,2.374 30.042,4.747 43.803,8.187 30.689,84.365 273.161,154.11 359.094,191.418 1.675,8.322 2.091,17.717 2.509,27.112 143.553,33.73 221.834,341.884 242.602,476.938 -9.639,134.956 -20.449,269.82 -31.342,405.846 79.275,76.555 224.875,201.719 245.551,308.688 9.214,1.908 18.419,3.812 27.531,6.884 12.591,91.106 -133.646,280.646 -176.346,375.509 -100.547,28.215 -200.303,31.92 -298.241,-1.667 8.758,-109.288 135.905,-118.986 151.038,-234.787 -61.158,-10.749 -122.404,-20.334 -184.815,-30.02 -41.963,144.069 -75.732,185.826 -107.872,280.372 -9.396,0.418 -18.791,0.829 -28.186,1.248 -1.911,9.211 -3.819,18.416 -6.885,27.53 -54.652,24.875 -110.46,49.652 -166.358,75.603 -170.953,1.505 -189.508,-15.186 -229.782,-9.053 -0.327,-10.56 -0.746,-19.955 -1.156,-29.351 -15.206,-0.046 -30.513,1.074 -45.812,2.185 -7.394,-9.952 -14.789,-19.908 -22.176,-29.86 l 0.168,-0.251 c 8.307,-12.773 18.539,-24.335 30.17,-34.956 52.014,-47.493 131.883,-76.021 191.785,-108.467 1.026,-42.039 0.896,-84.175 0.669,-125.148 -9.205,-1.903 -18.419,-3.812 -28.786,-5.813 -3.996,-67.012 -30.591,-114.778 -54.288,-257.083 -16.553,2.184 -33.206,5.522 -51.015,8.78 -1.91,9.203 -3.818,18.417 -6.894,27.531 -17.153,-4.885 -35.571,-8.703 -53.988,-12.515 -5.438,24.131 -10.887,48.269 -16.333,72.406 -32.125,-22.471 -64.26,-44.935 -97.647,-66.327 -4.611,13.671 -9.214,27.341 -13.815,41.01 -9.488,1.583 -20.137,3.068 -30.787,4.558 -21.666,108.476 -2.687,196.721 -16.349,286.678 -8.117,53.434 -27.745,107.486 -74.248,166.74 -2.381,3.026 -4.794,6.055 -7.312,9.112 -96.644,37.886 -207.18,0.95 -302.433,50.649 l 0,0 z"/></g></svg>